<svg xmlns="http://www.w3.org/2000/svg" aria-labelledby="headerLogoTitle" height="360" role="img" style="fill:currentColor" version="1.1" viewBox="0, 0, 2000, 360" width="2000" x="0" y="0"><title id="headerLogoTitle">Return to Ember homepage</title><g id="Layer_1"><path d="M179.633,359.633 C80.424,359.633 -0,279.209 -0,180 C-0,80.792 80.424,0.367 179.633,0.367 C278.842,0.367 359.266,80.792 359.266,180 C359.266,279.209 278.842,359.633 179.633,359.633 z"></path><path d="M421.767,359.633 C387.031,359.633 358.872,331.474 358.872,296.738 C358.872,262.002 387.031,233.843 421.767,233.843 C456.503,233.843 484.662,262.002 484.662,296.738 C484.662,331.474 456.503,359.633 421.767,359.633 z"></path><text display="none" transform="matrix(1, 0, 0, 1, 1289.601, 197.895)"><tspan font-family="Raleway-Bold" font-size="450" x="-710.399" y="143.079">ember</tspan></text><path d="M716.002,345.474 Q687.652,345.474 664.702,335.799 Q641.752,326.124 625.552,309.474 Q609.352,292.824 600.577,270.774 Q591.802,248.724 591.802,224.424 Q591.802,199.224 600.352,176.949 Q608.902,154.674 625.102,137.799 Q641.302,120.924 664.477,111.024 Q687.652,101.124 716.452,101.124 Q745.252,101.124 767.977,111.024 Q790.702,120.924 806.677,137.574 Q822.652,154.224 830.977,176.274 Q839.302,198.324 839.302,222.174 Q839.302,228.024 839.077,233.424 Q838.852,238.824 837.952,242.424 L655.702,242.424 Q657.052,256.374 662.452,267.174 Q667.852,277.974 676.402,285.624 Q684.952,293.274 695.752,297.324 Q706.552,301.374 718.252,301.374 Q736.252,301.374 752.227,292.599 Q768.202,283.824 774.052,269.424 L825.802,283.824 Q812.752,310.824 784.177,328.149 Q755.602,345.474 716.002,345.474 z M777.202,203.274 Q774.952,176.724 757.627,160.749 Q740.302,144.774 715.552,144.774 Q703.402,144.774 692.827,149.049 Q682.252,153.324 674.152,160.974 Q666.052,168.624 660.877,179.424 Q655.702,190.224 654.802,203.274 z"></path><path d="M1242.502,340.974 L1182.202,340.974 L1182.202,208.674 Q1182.202,180.324 1172.527,167.274 Q1162.852,154.224 1145.752,154.224 Q1127.752,154.224 1112.002,167.949 Q1096.252,181.674 1089.502,203.724 L1089.502,340.974 L1029.202,340.974 L1029.202,208.674 Q1029.202,180.324 1019.527,167.274 Q1009.852,154.224 992.752,154.224 Q975.202,154.224 959.227,167.724 Q943.252,181.224 936.502,203.274 L936.502,340.974 L876.202,340.974 L876.202,105.174 L930.652,105.174 L930.652,148.824 Q943.702,125.874 966.427,113.499 Q989.152,101.124 1018.402,101.124 Q1048.102,101.124 1064.302,115.524 Q1080.502,129.924 1085.002,151.074 Q1099.402,126.774 1121.452,113.949 Q1143.502,101.124 1171.852,101.124 Q1193.452,101.124 1207.402,109.224 Q1221.352,117.324 1229.002,130.374 Q1236.652,143.424 1239.577,160.074 Q1242.502,176.724 1242.502,193.824 z"></path><path d="M1429.252,345.474 Q1402.252,345.474 1381.102,333.324 Q1359.952,321.174 1347.802,300.024 L1347.802,340.974 L1295.152,340.974 L1295.152,12.474 L1355.452,12.474 L1355.452,146.574 Q1368.052,124.974 1388.527,113.049 Q1409.002,101.124 1436.452,101.124 Q1459.402,101.124 1478.302,111.024 Q1497.202,120.924 1510.927,137.574 Q1524.652,154.224 1532.077,176.724 Q1539.502,199.224 1539.502,223.974 Q1539.502,249.624 1531.177,271.674 Q1522.852,293.724 1508.002,310.149 Q1493.152,326.574 1472.902,336.024 Q1452.652,345.474 1429.252,345.474 z M1412.602,294.174 Q1427.002,294.174 1439.152,288.549 Q1451.302,282.924 1459.852,273.474 Q1468.402,264.024 1473.127,251.424 Q1477.852,238.824 1477.852,224.424 Q1477.852,210.024 1473.352,196.974 Q1468.852,183.924 1460.527,174.024 Q1452.202,164.124 1440.952,158.274 Q1429.702,152.424 1416.202,152.424 Q1395.952,152.424 1379.977,165.699 Q1364.002,178.974 1355.452,198.324 L1355.452,254.574 Q1358.602,263.574 1364.677,270.774 Q1370.752,277.974 1378.402,283.149 Q1386.052,288.324 1395.052,291.249 Q1404.052,294.174 1412.602,294.174 z"></path><path d="M1689.802,345.474 Q1661.452,345.474 1638.502,335.799 Q1615.552,326.124 1599.352,309.474 Q1583.152,292.824 1574.377,270.774 Q1565.602,248.724 1565.602,224.424 Q1565.602,199.224 1574.152,176.949 Q1582.702,154.674 1598.902,137.799 Q1615.102,120.924 1638.277,111.024 Q1661.452,101.124 1690.252,101.124 Q1719.052,101.124 1741.777,111.024 Q1764.502,120.924 1780.477,137.574 Q1796.452,154.224 1804.777,176.274 Q1813.102,198.324 1813.102,222.174 Q1813.102,228.024 1812.877,233.424 Q1812.652,238.824 1811.752,242.424 L1629.502,242.424 Q1630.852,256.374 1636.252,267.174 Q1641.652,277.974 1650.202,285.624 Q1658.752,293.274 1669.552,297.324 Q1680.352,301.374 1692.052,301.374 Q1710.052,301.374 1726.027,292.599 Q1742.002,283.824 1747.852,269.424 L1799.602,283.824 Q1786.552,310.824 1757.977,328.149 Q1729.402,345.474 1689.802,345.474 z M1751.002,203.274 Q1748.752,176.724 1731.427,160.749 Q1714.102,144.774 1689.352,144.774 Q1677.202,144.774 1666.627,149.049 Q1656.052,153.324 1647.952,160.974 Q1639.852,168.624 1634.677,179.424 Q1629.502,190.224 1628.602,203.274 z"></path><path d="M1990.402,157.374 Q1962.952,157.824 1941.352,167.949 Q1919.752,178.074 1910.302,198.324 L1910.302,340.974 L1850.002,340.974 L1850.002,105.174 L1905.352,105.174 L1905.352,155.574 Q1911.652,143.424 1920.202,133.749 Q1928.752,124.074 1938.652,116.874 Q1948.552,109.674 1958.677,105.849 Q1968.802,102.024 1978.252,102.024 Q1983.202,102.024 1985.677,102.024 Q1988.152,102.024 1990.402,102.474 z"></path></g></svg>